<mxfile host="app.diagrams.net" modified="2023-04-29T01:17:49.437Z" agent="Mozilla/5.0 (Windows NT 10.0; Win64; x64) AppleWebKit/537.36 (KHTML, like Gecko) Chrome/112.0.0.0 Safari/537.36" version="21.2.3" etag="un4bspO9lWnhMSIvucUw" type="github">
  <diagram name="페이지-1" id="OHRpwiyZFIiMUynJALIi">
    <mxGraphModel>
      <root>
        <mxCell id="0" />
        <mxCell id="1" parent="0" />
      </root>
    </mxGraphModel>
  </diagram>
</mxfile>
